<?xml version="1.0" encoding="utf-8"?>
<!-- Generator: Adobe Illustrator 26.4.1, SVG Export Plug-In . SVG Version: 6.00 Build 0)  -->
<svg version="1.1" id="Layer_1" xmlns="http://www.w3.org/2000/svg" xmlns:xlink="http://www.w3.org/1999/xlink" x="0px" y="0px"
	 viewBox="0 0 640 640" style="enable-background:new 0 0 640 640;" xml:space="preserve">
<style type="text/css">
	.st0{fill:#FFFFFF;}
	.st1{enable-background:new    ;}
</style>
<path class="st0" d="M400,96c26.5,0,48,21.5,48,48v256c0,26.5-21.5,48-48,48H266.7l10.6,32H352c17.7,0,32,14.3,32,32s-14.3,32-32,32
	H96c-17.7,0-32-14.3-32-32s14.3-32,32-32h74.7l10.6-32H48c-26.5,0-48-21.5-48-48V144c0-26.5,21.5-48,48-48H400z M64,160v224h320V160
	H64z M592,96c26.5,0,48,21.5,48,48v352c0,26.5-21.5,48-48,48h-64c-26.5,0-48-21.5-48-48V144c0-26.5,21.5-48,48-48H592z M544,160
	c-8.8,0-16,7.2-16,16s7.2,16,16,16h32c8.8,0,16-7.2,16-16s-7.2-16-16-16H544z M544,256h32c8.8,0,16-7.2,16-16s-7.2-16-16-16h-32
	c-8.8,0-16,7.2-16,16S535.2,256,544,256z M560,464c17.7,0,32-14.3,32-32s-14.3-32-32-32s-32,14.3-32,32S542.3,464,560,464z"/>
<g class="st1">
	<path class="st0" d="M126,275.2c-4.7-6-10.9-16.7-20-31.9c5.7,45.2,10.9,81.5,15.6,109c-6,1.7-11.9,2.3-17.9,1.9l-1.3-7.1
		c-5.2-30.6-11.7-80.7-20-149.7l12.5-6.9c25.4,43.1,41,69,47,77.5c4.9,7.5,14.3,19.6,27.8,36.3c-2.1-41.9-2.3-84.2-0.8-126.7
		c5.2-1.3,11.2-1,17.9,0.4c-0.5,17.3-0.8,34.4-0.8,51.5c0,43.1,1.8,85.5,5.7,127.6C173.8,335.7,151.5,308.6,126,275.2z"/>
</g>
<g class="st1">
	<path class="st0" d="M230.9,331.6c-9.2,0-14.3-5.4-14.3-11.7c0-6.1,6-11.7,15.2-11.7c7.4,0,14.1,4.6,14.1,10.8
		C245.9,325.1,240.3,331.6,230.9,331.6z"/>
</g>
<g class="st1">
	<path class="st0" d="M355.7,298c-11.4,17.7-36.9,29.4-76,35L276,213.5c-0.8,0-6.5,0-16.9,0.4c-1.8-5-2.1-10.4-0.8-15.8
		c12.2-0.4,20.8-0.6,25.2-0.6c29.3,0,51.4,5.2,66.2,15.4c10.9,7.5,18.9,21.5,18.9,41.5C368.7,272.5,362.7,286.9,355.7,298z
		 M339.3,224.8c-10.6-6.9-26-10.6-45.9-11.7l3.4,99.6c24.9-1,37.9-16.1,44.4-25.2c6.2-9.2,10.6-23.1,10.6-36.3
		C351.8,237.9,345.8,229,339.3,224.8z"/>
</g>
</svg>
